<svg xmlns="http://www.w3.org/2000/svg" xmlns:xlink="http://www.w3.org/1999/xlink" width="16" height="16" viewBox="0 0 16 16">
  <defs>
    <clipPath id="clip-jdbc_virt">
      <rect width="16" height="16"/>
    </clipPath>
  </defs>
  <g id="jdbc_virt" clip-path="url(#clip-jdbc_virt)">
    <path id="Path_3557" data-name="Path 3557" d="M2.75-9.194c0-.719-1.792-1.306-4-1.306s-4,.587-4,1.306v.816c0,.719,1.792,1.306,4,1.306s4-.587,4-1.306Zm0,1.837a7.722,7.722,0,0,1-4,.867,7.722,7.722,0,0,1-4-.867V-5.52c0,.719,1.792,1.306,4,1.306s4-.587,4-1.306Zm0,2.857a7.722,7.722,0,0,1-4,.867,7.722,7.722,0,0,1-4-.867v1.837c0,.719,1.792,1.306,4,1.306s4-.587,4-1.306Z" transform="translate(12.25 16.4)" fill="#4b5662"/>
    <path id="Union_136" data-name="Union 136" d="M4,3.454v-.6H.5A.539.539,0,0,1,0,2.286V1.714a.539.539,0,0,1,.5-.571H4v-.6A.488.488,0,0,1,4.752.088L6.776,1.541a.582.582,0,0,1,0,.917L4.752,3.913A.447.447,0,0,1,4.489,4,.519.519,0,0,1,4,3.454Z" transform="translate(1)" fill="#4b5662"/>
    <path id="Union_135" data-name="Union 135" d="M4,3.454v-.6H.5A.539.539,0,0,1,0,2.286V1.714a.539.539,0,0,1,.5-.571H4v-.6A.488.488,0,0,1,4.752.088L6.776,1.541a.582.582,0,0,1,0,.917L4.752,3.913A.447.447,0,0,1,4.489,4,.519.519,0,0,1,4,3.454Z" transform="translate(8 8) rotate(180)" fill="#4b5662"/>
  </g>
</svg>
