<svg xmlns="http://www.w3.org/2000/svg" xmlns:xlink="http://www.w3.org/1999/xlink" width="16" height="16" viewBox="0 0 16 16">
  <defs>
    <clipPath id="clip-soap_virt">
      <rect width="16" height="16"/>
    </clipPath>
  </defs>
  <g id="soap_virt" clip-path="url(#clip-soap_virt)">
    <g id="Union_120" data-name="Union 120" transform="translate(2254 147)" fill="none">
      <path d="M-2245-139.955V-141h-7a1,1,0,0,1-1-1v-1a1,1,0,0,1,1-1h7v-1.045a.976.976,0,0,1,1.5-.8l4.049,2.544a.943.943,0,0,1,0,1.6l-4.049,2.545a.982.982,0,0,1-.525.153A.967.967,0,0,1-2245-139.955Z" stroke="none"/>
      <path d="M -2243.999755859375 -140.0174713134766 L -2240.050048828125 -142.5001525878906 L -2243.999755859375 -144.9818115234375 L -2243.999755859375 -143 L -2251.999755859375 -143.0001068115234 L -2251.999755859375 -142.0003051757812 L -2243.999755859375 -142.0003051757812 L -2243.999755859375 -140.0174713134766 M -2244.021484375 -138.9997253417969 C -2244.529296875 -138.9997100830078 -2244.999755859375 -139.39501953125 -2244.999755859375 -139.9553985595703 L -2244.999755859375 -141.0003051757812 L -2251.999755859375 -141.0003051757812 C -2252.552490234375 -141.0003051757812 -2252.999755859375 -141.4476013183594 -2252.999755859375 -142.0001983642578 L -2252.999755859375 -143.0001068115234 C -2252.999755859375 -143.5527038574219 -2252.552490234375 -144 -2251.999755859375 -144 L -2244.999755859375 -144 L -2244.999755859375 -145.0449066162109 C -2244.999755859375 -145.7989807128906 -2244.14599609375 -146.2555541992188 -2243.49658203125 -145.8468017578125 L -2239.447509765625 -143.3025054931641 C -2238.850830078125 -142.9272003173828 -2238.850830078125 -142.0731048583984 -2239.447509765625 -141.6977996826172 L -2243.49658203125 -139.1526031494141 C -2243.6640625 -139.0474700927734 -2243.844970703125 -138.9997253417969 -2244.021484375 -138.9997253417969 Z" stroke="none" fill="#2cb14a"/>
    </g>
    <path id="Union_132" data-name="Union 132" d="M-2245-139.955V-141h-7a1,1,0,0,1-1-1v-1a1,1,0,0,1,1-1h7v-1.045a.976.976,0,0,1,1.5-.8l4.049,2.544a.943.943,0,0,1,0,1.6l-4.049,2.545a.982.982,0,0,1-.525.153A.967.967,0,0,1-2245-139.955Z" transform="translate(-2238 -131) rotate(180)" fill="#2cb14a"/>
  </g>
</svg>
